<svg xmlns="http://www.w3.org/2000/svg" width="6.1" height="6.1" viewBox="0 0 1.614 1.614" xmlns:v="https://vecta.io/nano"><path d="M.883 0H.106L0 .292l.106.04a.33.33 0 0 1 .111-.15C.258.151.309.131.349.131.37.131.373.138.373.181v.543C.374.813.358.831.277.842L.234.845v.116h.524V.845L.715.842C.634.831.618.813.619.724V.178c0-.049 0-.049.028-.049.051 0 .103.027.155.078.032.031.044.048.092.126l.103-.04z"/><path d="M1.359.68C1.302.64 1.215.616 1.131.616.921.616.769.745.769.924c0 .089.04.167.107.21.049.031.078.041.244.082l.14.035c.106.027.135.048.135.1 0 .073-.073.126-.178.126-.099 0-.198-.044-.268-.117a.69.69 0 0 1-.102-.144l-.106.035.117.36h.083l.02-.069a.45.45 0 0 0 .253.072c.23 0 .399-.144.399-.339 0-.087-.038-.165-.103-.207-.042-.028-.08-.042-.202-.075L1.181.959c-.003-.001-.03-.007-.069-.016C1.085.938 1.059.93 1.038.92 1.004.906.987.882.987.852c0-.058.065-.099.155-.099.08 0 .168.038.222.096a1 1 0 0 1 .087.11l.102-.038L1.46.635h-.085z"/></svg>